<?xml version="1.0" ?><svg data-name="Layer 1" id="Layer_1" viewBox="0 0 70 70" xmlns="http://www.w3.org/2000/svg" xmlns:xlink="http://www.w3.org/1999/xlink"><defs><style>.cls-1,.cls-13,.cls-7{fill:none;}.cls-2{fill:#dee1e5;}.cls-3{fill:#fff;}.cls-4{fill:#ef3d3d;}.cls-5{fill:#ff7e7e;}.cls-6{fill:#ffd41f;}.cls-13,.cls-7{stroke:#1a1a1a;stroke-width:1.5px;}.cls-7{stroke-linecap:round;stroke-linejoin:round;}.cls-8{fill:url(#New_Pattern_Swatch_4);}.cls-9{fill:url(#New_Pattern_Swatch_5);}.cls-10{fill:url(#New_Pattern_Swatch_2);}.cls-11{fill:url(#New_Pattern_Swatch_3);}.cls-12{fill:url(#New_Pattern_Swatch_2-3);}.cls-13{stroke-miterlimit:10;}.cls-14{fill:#1a1a1a;}.cls-15{fill:url(#New_Pattern_Swatch_2-5);}.cls-16{fill:url(#New_Pattern_Swatch_3-3);}.cls-17{fill:url(#New_Pattern_Swatch_2-7);}</style><pattern data-name="New Pattern Swatch 4" height="23.5" id="New_Pattern_Swatch_4" patternTransform="translate(-35.66 -29.28)" patternUnits="userSpaceOnUse" viewBox="0 0 23.5 23.5" width="23.5"><rect class="cls-1" height="23.5" width="23.5"/><rect class="cls-4" height="23.5" width="23.5"/></pattern><pattern data-name="New Pattern Swatch 5" height="23.5" id="New_Pattern_Swatch_5" patternTransform="translate(-35.66 -29.28)" patternUnits="userSpaceOnUse" viewBox="0 0 23.5 23.5" width="23.5"><rect class="cls-1" height="23.5" width="23.5"/><rect class="cls-5" height="23.5" width="23.5"/></pattern><pattern data-name="New Pattern Swatch 2" height="23.5" id="New_Pattern_Swatch_2" patternTransform="matrix(-0.61, 0, 0, 0.61, 28.22, -21.7)" patternUnits="userSpaceOnUse" viewBox="0 0 23.5 23.5" width="23.5"><rect class="cls-1" height="23.5" width="23.5"/><rect class="cls-2" height="23.5" width="23.5"/></pattern><pattern data-name="New Pattern Swatch 3" height="23.5" id="New_Pattern_Swatch_3" patternTransform="matrix(-0.61, 0, 0, 0.61, 28.22, -21.7)" patternUnits="userSpaceOnUse" viewBox="0 0 23.5 23.5" width="23.5"><rect class="cls-1" height="23.5" width="23.5"/><rect class="cls-3" height="23.5" width="23.5"/></pattern><pattern data-name="New Pattern Swatch 2" height="23.5" id="New_Pattern_Swatch_2-3" patternTransform="matrix(-0.61, 0, 0, 0.68, 27.7, -43.11)" patternUnits="userSpaceOnUse" viewBox="0 0 23.5 23.5" width="23.5"><rect class="cls-1" height="23.5" width="23.5"/><rect class="cls-2" height="23.5" width="23.5"/></pattern><pattern data-name="New Pattern Swatch 2" height="23.5" id="New_Pattern_Swatch_2-5" patternTransform="matrix(-0.61, 0, 0, 0.61, 38.25, -21.7)" patternUnits="userSpaceOnUse" viewBox="0 0 23.5 23.5" width="23.5"><rect class="cls-1" height="23.5" width="23.5"/><rect class="cls-2" height="23.5" width="23.5"/></pattern><pattern data-name="New Pattern Swatch 3" height="23.5" id="New_Pattern_Swatch_3-3" patternTransform="matrix(-0.61, 0, 0, 0.61, 38.25, -21.7)" patternUnits="userSpaceOnUse" viewBox="0 0 23.5 23.5" width="23.5"><rect class="cls-1" height="23.5" width="23.5"/><rect class="cls-3" height="23.5" width="23.5"/></pattern><pattern data-name="New Pattern Swatch 2" height="23.5" id="New_Pattern_Swatch_2-7" patternTransform="translate(-59.25 -43.11) scale(0.61 0.68)" patternUnits="userSpaceOnUse" viewBox="0 0 23.5 23.5" width="23.5"><rect class="cls-1" height="23.5" width="23.5"/><rect class="cls-2" height="23.5" width="23.5"/></pattern></defs><title/><path class="cls-6" d="M67,35A32,32,0,1,1,50.28,6.87,32,32,0,0,1,67,35Z"/><circle class="cls-7" cx="35" cy="35" r="32"/><path class="cls-8" d="M47.85,55.8A17.76,17.76,0,0,0,35,50.69a19.29,19.29,0,0,0-3.26.27,32.42,32.42,0,0,1,9.21-5A13,13,0,0,1,47.85,55.8Z"/><path class="cls-9" d="M41,45.92a32.42,32.42,0,0,0-9.21,5h0a17.06,17.06,0,0,0-9.56,4.83A13,13,0,0,1,35,44.47,12.8,12.8,0,0,1,41,45.92Z"/><path class="cls-7" d="M22.15,55.81a13,13,0,0,1,25.7,0A17.75,17.75,0,0,0,35,50.7,17.75,17.75,0,0,0,22.15,55.81Z"/><path class="cls-10" d="M29.84,28a7,7,0,0,1-12.79,3.84,6.79,6.79,0,0,0,2.51.47,7,7,0,0,0,5.81-10.82A7,7,0,0,1,29.84,28Z"/><path class="cls-11" d="M26.53,25.33a7,7,0,0,1-7,7,6.79,6.79,0,0,1-2.51-.47A7,7,0,0,1,22.86,21a6.79,6.79,0,0,1,2.51.47A7,7,0,0,1,26.53,25.33Z"/><ellipse cx="23.67" cy="27.34" rx="3.44" ry="3.87"/><ellipse class="cls-12" cx="24.87" cy="26.66" rx="1.2" ry="1.35"/><circle class="cls-13" cx="22.86" cy="27.99" r="6.97"/><path class="cls-14" d="M22.12,17.67a10.9,10.9,0,0,0-6.54,2.86A11.25,11.25,0,0,0,12.09,27,11.69,11.69,0,0,1,15,20a12.13,12.13,0,0,1,6.88-3.82h0a.75.75,0,0,1,.26,1.48Z"/><path class="cls-15" d="M54.11,28a7,7,0,0,1-12.78,3.84,6.75,6.75,0,0,0,2.51.47,7,7,0,0,0,5.81-10.82A7,7,0,0,1,54.11,28Z"/><path class="cls-16" d="M50.81,25.33a7,7,0,0,1-7,7,6.75,6.75,0,0,1-2.51-.47A7,7,0,0,1,47.14,21a6.79,6.79,0,0,1,2.51.47A7,7,0,0,1,50.81,25.33Z"/><ellipse cx="46.33" cy="27.34" rx="3.44" ry="3.87"/><ellipse class="cls-17" cx="45.13" cy="26.66" rx="1.2" ry="1.35"/><circle class="cls-13" cx="47.14" cy="27.99" r="6.97"/><path class="cls-14" d="M48.08,16.18A12.13,12.13,0,0,1,55,20a11.7,11.7,0,0,1,3,7,11.31,11.31,0,0,0-3.49-6.5,10.92,10.92,0,0,0-6.54-2.86.74.74,0,0,1-.69-.81.75.75,0,0,1,.8-.69h.08Z"/></svg>